<svg width="20" height="21" viewBox="0 0 20 21" fill="none" xmlns="http://www.w3.org/2000/svg">
<g clip-path="url(#clip0_278_979)">
<path d="M11.6667 0.880699H8.33336C7.87502 0.880699 7.50002 1.2557 7.50002 1.71403C7.50002 2.17237 7.87502 2.54737 8.33336 2.54737H11.6667C12.125 2.54737 12.5 2.17237 12.5 1.71403C12.5 1.2557 12.125 0.880699 11.6667 0.880699ZM10 11.714C10.4584 11.714 10.8334 11.339 10.8334 10.8807V7.54737C10.8334 7.08903 10.4584 6.71403 10 6.71403C9.54169 6.71403 9.16669 7.08903 9.16669 7.54737V10.8807C9.16669 11.339 9.54169 11.714 10 11.714ZM15.8584 6.2057L16.4834 5.5807C16.8 5.26403 16.8084 4.73903 16.4834 4.41403L16.475 4.4057C16.15 4.0807 15.6334 4.08903 15.3084 4.4057L14.6834 5.0307C13.3917 3.99737 11.7667 3.3807 10 3.3807C6.00002 3.3807 2.60002 6.6807 2.50002 10.6807C2.39169 14.914 5.78336 18.3807 10 18.3807C14.15 18.3807 17.5 15.0224 17.5 10.8807C17.5 9.11403 16.8834 7.48903 15.8584 6.2057ZM10 16.714C6.77502 16.714 4.16669 14.1057 4.16669 10.8807C4.16669 7.6557 6.77502 5.04737 10 5.04737C13.225 5.04737 15.8334 7.6557 15.8334 10.8807C15.8334 14.1057 13.225 16.714 10 16.714Z" fill="#312946"/>
</g>
<defs>
<clipPath id="clip0_278_979">
<rect width="20" height="20" fill="white" transform="translate(0 0.0473633)"/>
</clipPath>
</defs>
</svg>
