<svg width="10" height="13" viewBox="0 0 10 13" fill="none" xmlns="http://www.w3.org/2000/svg">
<path d="M8.16667 4.08333H7.58333V2.91667C7.58333 1.30667 6.27667 0 4.66667 0C3.05667 0 1.75 1.30667 1.75 2.91667V4.08333H1.16667C0.525 4.08333 0 4.60833 0 5.25V11.0833C0 11.725 0.525 12.25 1.16667 12.25H8.16667C8.80833 12.25 9.33333 11.725 9.33333 11.0833V5.25C9.33333 4.60833 8.80833 4.08333 8.16667 4.08333ZM2.91667 2.91667C2.91667 1.94833 3.69833 1.16667 4.66667 1.16667C5.635 1.16667 6.41667 1.94833 6.41667 2.91667V4.08333H2.91667V2.91667ZM7.58333 11.0833H1.75C1.42917 11.0833 1.16667 10.8208 1.16667 10.5V5.83333C1.16667 5.5125 1.42917 5.25 1.75 5.25H7.58333C7.90417 5.25 8.16667 5.5125 8.16667 5.83333V10.5C8.16667 10.8208 7.90417 11.0833 7.58333 11.0833ZM4.66667 9.33333C5.30833 9.33333 5.83333 8.80833 5.83333 8.16667C5.83333 7.525 5.30833 7 4.66667 7C4.025 7 3.5 7.525 3.5 8.16667C3.5 8.80833 4.025 9.33333 4.66667 9.33333Z" fill="#312946"/>
</svg>
