<svg width="36" height="24" viewBox="0 0 36 24" fill="none" xmlns="http://www.w3.org/2000/svg">
<mask id="path-1-outside-1_278_374" maskUnits="userSpaceOnUse" x="-0.640625" y="-0.150513" width="37" height="24" fill="black">
<rect fill="white" x="-0.640625" y="-0.150513" width="37" height="24"/>
<path d="M13.9934 21.8495L10.3339 16.3474L7.10938 21.8495H2.1447L7.90271 12.7134L2.01674 3.88448H7.10938L10.7177 9.30981L13.891 3.88448H18.8557L13.1489 12.9438L19.0861 21.8495H13.9934ZM20.6943 18.3435C21.2744 17.8829 21.5388 17.6696 21.4876 17.7037C23.1596 16.3218 24.4733 15.1873 25.4287 14.3001C26.4011 13.4129 27.22 12.4831 27.8854 11.5107C28.5508 10.5382 28.8835 9.59132 28.8835 8.67003C28.8835 7.97054 28.7214 7.4246 28.3972 7.0322C28.0731 6.6398 27.5869 6.4436 26.9385 6.4436C26.2902 6.4436 25.7784 6.69098 25.4031 7.18575C25.0448 7.66345 24.8657 8.34588 24.8657 9.23304H20.6431C20.6772 7.78287 20.9843 6.57156 21.5644 5.59909C22.1615 4.62663 22.9378 3.91008 23.8932 3.44943C24.8657 2.98879 25.9405 2.75847 27.1177 2.75847C29.1479 2.75847 30.6749 3.27883 31.6985 4.31953C32.7392 5.36024 33.2596 6.71657 33.2596 8.38853C33.2596 10.214 32.6368 11.9116 31.3914 13.4812C30.146 15.0337 28.5593 16.5521 26.6314 18.0364H33.5411V21.5936H20.6943V18.3435Z"/>
</mask>
<path d="M13.9934 21.8495L10.3339 16.3474L7.10938 21.8495H2.1447L7.90271 12.7134L2.01674 3.88448H7.10938L10.7177 9.30981L13.891 3.88448H18.8557L13.1489 12.9438L19.0861 21.8495H13.9934ZM20.6943 18.3435C21.2744 17.8829 21.5388 17.6696 21.4876 17.7037C23.1596 16.3218 24.4733 15.1873 25.4287 14.3001C26.4011 13.4129 27.22 12.4831 27.8854 11.5107C28.5508 10.5382 28.8835 9.59132 28.8835 8.67003C28.8835 7.97054 28.7214 7.4246 28.3972 7.0322C28.0731 6.6398 27.5869 6.4436 26.9385 6.4436C26.2902 6.4436 25.7784 6.69098 25.4031 7.18575C25.0448 7.66345 24.8657 8.34588 24.8657 9.23304H20.6431C20.6772 7.78287 20.9843 6.57156 21.5644 5.59909C22.1615 4.62663 22.9378 3.91008 23.8932 3.44943C24.8657 2.98879 25.9405 2.75847 27.1177 2.75847C29.1479 2.75847 30.6749 3.27883 31.6985 4.31953C32.7392 5.36024 33.2596 6.71657 33.2596 8.38853C33.2596 10.214 32.6368 11.9116 31.3914 13.4812C30.146 15.0337 28.5593 16.5521 26.6314 18.0364H33.5411V21.5936H20.6943V18.3435Z" fill="white"/>
<path d="M13.9934 21.8495L12.3518 22.9414C12.7173 23.4909 13.3335 23.8211 13.9934 23.8211V21.8495ZM10.3339 16.3474L11.9755 15.2555C11.599 14.6894 10.9574 14.3573 10.2779 14.3766C9.59828 14.3959 8.97661 14.764 8.63287 15.3505L10.3339 16.3474ZM7.10938 21.8495V23.8211C7.80919 23.8211 8.45655 23.4501 8.81038 22.8464L7.10938 21.8495ZM2.1447 21.8495L0.476744 20.7983C0.0938861 21.4057 0.0715613 22.1733 0.418466 22.802C0.765371 23.4307 1.42664 23.8211 2.1447 23.8211V21.8495ZM7.90271 12.7134L9.57066 13.7647C9.98526 13.1068 9.97449 12.2668 9.54317 11.6198L7.90271 12.7134ZM2.01674 3.88448V1.9129C1.28963 1.9129 0.621537 2.3131 0.278443 2.95418C-0.0646498 3.59525 -0.0270468 4.37313 0.376282 4.97812L2.01674 3.88448ZM7.10938 3.88448L8.75103 2.79263C8.38555 2.24311 7.76935 1.9129 7.10938 1.9129V3.88448ZM10.7177 9.30981L9.07609 10.4017C9.45275 10.968 10.0947 11.3002 10.7746 11.2806C11.4544 11.261 12.0762 10.8923 12.4196 10.3052L10.7177 9.30981ZM13.891 3.88448V1.9129C13.1906 1.9129 12.5428 2.28448 12.1892 2.88906L13.891 3.88448ZM18.8557 3.88448L20.5239 4.93535C20.9066 4.32786 20.9288 3.56037 20.5819 2.93178C20.2349 2.3032 19.5737 1.9129 18.8557 1.9129V3.88448ZM13.1489 12.9438L11.4807 11.8929C11.0664 12.5507 11.0772 13.3905 11.5084 14.0374L13.1489 12.9438ZM19.0861 21.8495V23.8211C19.8132 23.8211 20.4813 23.4209 20.8243 22.7798C21.1674 22.1387 21.1298 21.3608 20.7265 20.7558L19.0861 21.8495ZM15.635 20.7576L11.9755 15.2555L8.69224 17.4393L12.3518 22.9414L15.635 20.7576ZM8.63287 15.3505L5.40838 20.8526L8.81038 22.8464L12.0349 17.3443L8.63287 15.3505ZM7.10938 19.8779H2.1447V23.8211H7.10938V19.8779ZM3.81265 22.9007L9.57066 13.7647L6.23476 11.6622L0.476744 20.7983L3.81265 22.9007ZM9.54317 11.6198L3.6572 2.79085L0.376282 4.97812L6.26225 13.8071L9.54317 11.6198ZM2.01674 5.85607H7.10938V1.9129H2.01674V5.85607ZM5.46773 4.97634L9.07609 10.4017L12.3594 8.21796L8.75103 2.79263L5.46773 4.97634ZM12.4196 10.3052L15.5929 4.8799L12.1892 2.88906L9.01589 8.31439L12.4196 10.3052ZM13.891 5.85607H18.8557V1.9129H13.891V5.85607ZM17.1875 2.83362L11.4807 11.8929L14.8171 13.9946L20.5239 4.93535L17.1875 2.83362ZM11.5084 14.0374L17.4456 22.9431L20.7265 20.7558L14.7894 11.8501L11.5084 14.0374ZM19.0861 19.8779H13.9934V23.8211H19.0861V19.8779ZM20.6943 18.3435L19.4682 16.7995C18.9972 17.1735 18.7227 17.7421 18.7227 18.3435H20.6943ZM21.4876 17.7037L20.2316 16.184C19.4226 16.8527 19.2792 18.0379 19.9055 18.8801C20.5317 19.7224 21.708 19.9264 22.5813 19.3442L21.4876 17.7037ZM25.4287 14.3001L24.0999 12.8436C24.0956 12.8475 24.0913 12.8514 24.0871 12.8553L25.4287 14.3001ZM28.3972 7.0322L26.8772 8.28786L26.8772 8.28786L28.3972 7.0322ZM25.4031 7.18575L23.8323 5.99413L23.8258 6.0028L25.4031 7.18575ZM24.8657 9.23304V11.2046C25.9545 11.2046 26.8372 10.3219 26.8372 9.23304H24.8657ZM20.6431 9.23304L18.6721 9.18666C18.6596 9.71745 18.8617 10.2308 19.2327 10.6107C19.6037 10.9905 20.1122 11.2046 20.6431 11.2046V9.23304ZM21.5644 5.59909L19.8843 4.56743C19.8799 4.57463 19.8755 4.58185 19.8712 4.58909L21.5644 5.59909ZM23.8932 3.44943L23.0492 1.6676L23.0369 1.67349L23.8932 3.44943ZM31.6985 4.31953L30.2929 5.70209C30.2967 5.70596 30.3005 5.70981 30.3044 5.71365L31.6985 4.31953ZM31.3914 13.4812L32.9293 14.7149L32.9359 14.7067L31.3914 13.4812ZM26.6314 18.0364L25.4287 16.4742C24.7599 16.9891 24.4931 17.8726 24.765 18.6717C25.037 19.4707 25.7874 20.008 26.6314 20.008V18.0364ZM33.5411 18.0364H35.5126C35.5126 16.9475 34.6299 16.0648 33.5411 16.0648V18.0364ZM33.5411 21.5936V23.5652C34.6299 23.5652 35.5126 22.6825 35.5126 21.5936H33.5411ZM20.6943 21.5936H18.7227C18.7227 22.6825 19.6054 23.5652 20.6943 23.5652V21.5936ZM21.9204 19.8875C22.2109 19.6568 22.427 19.4844 22.5653 19.3728C22.6313 19.3196 22.6916 19.2706 22.7349 19.2342C22.7465 19.2244 22.7624 19.211 22.7798 19.1958C22.7863 19.1901 22.8332 19.1496 22.8861 19.0966C22.902 19.0808 22.9301 19.0522 22.9634 19.0149C22.9852 18.9906 23.0634 18.903 23.1451 18.7777C23.1823 18.7207 23.2724 18.5778 23.3459 18.3765C23.3901 18.2554 23.6077 17.6557 23.3169 16.9495C22.9337 16.019 22.087 15.7773 21.6861 15.738C21.3294 15.703 21.0547 15.7763 20.9748 15.7981C20.7747 15.8527 20.6291 15.9279 20.6023 15.9415C20.5485 15.9688 20.5069 15.9929 20.4856 16.0056C20.4417 16.0316 20.4079 16.054 20.394 16.0633L22.5813 19.3442C22.5706 19.3513 22.5393 19.372 22.4974 19.3969C22.4771 19.409 22.4363 19.4327 22.3831 19.4596C22.3571 19.4728 22.212 19.5479 22.0123 19.6023C21.9326 19.6241 21.658 19.6973 21.3014 19.6624C20.9006 19.6231 20.0539 19.3814 19.6708 18.451C19.38 17.7449 19.5976 17.1452 19.6418 17.0243C19.7152 16.8231 19.8052 16.6804 19.8423 16.6236C19.9238 16.4986 20.0016 16.4116 20.0228 16.3879C20.0555 16.3512 20.0829 16.3234 20.0979 16.3084C20.1673 16.239 20.2311 16.1876 20.1987 16.2149C20.1888 16.2232 20.1562 16.2499 20.09 16.3034C19.964 16.405 19.7578 16.5696 19.4682 16.7995L21.9204 19.8875ZM22.7437 19.2234C24.4285 17.8309 25.7749 16.6691 26.7702 15.7449L24.0871 12.8553C23.1716 13.7054 21.8907 14.8127 20.2316 16.184L22.7437 19.2234ZM26.7574 15.7566C27.8294 14.7787 28.752 13.7356 29.5126 12.624L26.2583 10.3973C25.6881 11.2306 24.9729 12.0471 24.0999 12.8436L26.7574 15.7566ZM29.5126 12.624C30.3399 11.4148 30.8551 10.0864 30.8551 8.67003H26.9119C26.9119 9.09622 26.7617 9.66159 26.2583 10.3973L29.5126 12.624ZM30.8551 8.67003C30.8551 7.68281 30.6261 6.63459 29.9173 5.77653L26.8772 8.28786C26.8167 8.2146 26.9119 8.25827 26.9119 8.67003H30.8551ZM29.9173 5.77653C29.1201 4.81153 28.0005 4.47202 26.9385 4.47202V8.41519C27.0677 8.41519 27.0913 8.43509 27.0517 8.4191C27.031 8.41074 27 8.39527 26.9651 8.3699C26.9299 8.34436 26.9001 8.3156 26.8772 8.28786L29.9173 5.77653ZM26.9385 4.47202C25.7051 4.47202 24.5992 4.98332 23.8323 5.99415L26.9738 8.37734C26.9847 8.36304 26.986 8.36429 26.9752 8.37328C26.9639 8.38273 26.947 8.39432 26.9264 8.40425C26.9061 8.41408 26.8919 8.41762 26.8891 8.41822C26.8871 8.41864 26.902 8.41519 26.9385 8.41519V4.47202ZM23.8258 6.0028C23.1141 6.95179 22.8941 8.11697 22.8941 9.23304H26.8372C26.8372 8.57479 26.9755 8.3751 26.9803 8.3687L23.8258 6.0028ZM24.8657 7.26145H20.6431V11.2046H24.8657V7.26145ZM22.6142 9.27942C22.6425 8.07561 22.894 7.21872 23.2576 6.60909L19.8712 4.58909C19.0747 5.92439 18.712 7.49014 18.6721 9.18666L22.6142 9.27942ZM23.2445 6.63075C23.6597 5.95467 24.1603 5.50944 24.7495 5.22538L23.0369 1.67349C21.7153 2.31072 20.6634 3.29858 19.8843 4.56743L23.2445 6.63075ZM24.7372 5.23123C25.4218 4.90694 26.2046 4.73006 27.1177 4.73006V0.786887C25.6764 0.786887 24.3095 1.07065 23.0492 1.66764L24.7372 5.23123ZM27.1177 4.73006C28.8301 4.73006 29.7653 5.16572 30.2929 5.70209L33.1041 2.93698C31.5844 1.39193 29.4658 0.786887 27.1177 0.786887V4.73006ZM30.3044 5.71365C30.924 6.33326 31.288 7.16206 31.288 8.38853H35.2311C35.2311 6.27108 34.5544 4.38722 33.0926 2.92541L30.3044 5.71365ZM31.288 8.38853C31.288 9.72495 30.8445 10.9985 29.847 12.2557L32.9359 14.7067C34.4292 12.8247 35.2311 10.7031 35.2311 8.38853H31.288ZM29.8535 12.2475C28.7252 13.654 27.2586 15.0653 25.4287 16.4742L27.8342 19.5986C29.86 18.0389 31.5668 16.4134 32.9293 14.7149L29.8535 12.2475ZM26.6314 20.008H33.5411V16.0648H26.6314V20.008ZM31.5695 18.0364V21.5936H35.5126V18.0364H31.5695ZM33.5411 19.622H20.6943V23.5652H33.5411V19.622ZM22.6659 21.5936V18.3435H18.7227V21.5936H22.6659Z" fill="#312946" mask="url(#path-1-outside-1_278_374)"/>
</svg>
