<svg width="36" height="24" viewBox="0 0 36 24" fill="none" xmlns="http://www.w3.org/2000/svg">
<mask id="path-1-outside-1_278_364" maskUnits="userSpaceOnUse" x="-0.427734" y="-0.524414" width="37" height="24" fill="black">
<rect fill="white" x="-0.427734" y="-0.524414" width="37" height="24"/>
<path d="M14.2063 21.4756L10.5468 15.9735L7.32227 21.4756H2.35759L8.1156 12.3395L2.22963 3.51058H7.32227L10.9306 8.93591L14.1039 3.51058H19.0686L13.3618 12.5699L19.2989 21.4756H14.2063ZM20.9072 17.9696C21.4873 17.509 21.7517 17.2957 21.7005 17.3298C23.3725 15.9479 24.6862 14.8134 25.6416 13.9262C26.614 13.039 27.4329 12.1092 28.0983 11.1368C28.7637 10.1643 29.0964 9.21741 29.0964 8.29613C29.0964 7.59664 28.9343 7.05069 28.6101 6.6583C28.286 6.2659 27.7997 6.0697 27.1514 6.0697C26.5031 6.0697 25.9913 6.31708 25.616 6.81184C25.2577 7.28955 25.0785 7.97198 25.0785 8.85914H20.856C20.8901 7.40897 21.1972 6.19766 21.7773 5.22519C22.3744 4.25273 23.1507 3.53617 24.1061 3.07553C25.0785 2.61489 26.1534 2.38457 27.3306 2.38457C29.3608 2.38457 30.8877 2.90492 31.9114 3.94563C32.9521 4.98634 33.4725 6.34267 33.4725 8.01463C33.4725 9.84013 32.8497 11.5377 31.6043 13.1073C30.3589 14.6598 28.7722 16.1782 26.8443 17.6625H33.754V21.2197H20.9072V17.9696Z"/>
</mask>
<path d="M14.2063 21.4756L10.5468 15.9735L7.32227 21.4756H2.35759L8.1156 12.3395L2.22963 3.51058H7.32227L10.9306 8.93591L14.1039 3.51058H19.0686L13.3618 12.5699L19.2989 21.4756H14.2063ZM20.9072 17.9696C21.4873 17.509 21.7517 17.2957 21.7005 17.3298C23.3725 15.9479 24.6862 14.8134 25.6416 13.9262C26.614 13.039 27.4329 12.1092 28.0983 11.1368C28.7637 10.1643 29.0964 9.21741 29.0964 8.29613C29.0964 7.59664 28.9343 7.05069 28.6101 6.6583C28.286 6.2659 27.7997 6.0697 27.1514 6.0697C26.5031 6.0697 25.9913 6.31708 25.616 6.81184C25.2577 7.28955 25.0785 7.97198 25.0785 8.85914H20.856C20.8901 7.40897 21.1972 6.19766 21.7773 5.22519C22.3744 4.25273 23.1507 3.53617 24.1061 3.07553C25.0785 2.61489 26.1534 2.38457 27.3306 2.38457C29.3608 2.38457 30.8877 2.90492 31.9114 3.94563C32.9521 4.98634 33.4725 6.34267 33.4725 8.01463C33.4725 9.84013 32.8497 11.5377 31.6043 13.1073C30.3589 14.6598 28.7722 16.1782 26.8443 17.6625H33.754V21.2197H20.9072V17.9696Z" fill="#26EFA4"/>
<path d="M14.2063 21.4756L12.5647 22.5675C12.9302 23.117 13.5463 23.4472 14.2063 23.4472V21.4756ZM10.5468 15.9735L12.1884 14.8816C11.8119 14.3155 11.1703 13.9834 10.4907 14.0027C9.81117 14.022 9.1895 14.3901 8.84576 14.9766L10.5468 15.9735ZM7.32227 21.4756V23.4472C8.02208 23.4472 8.66944 23.0762 9.02327 22.4725L7.32227 21.4756ZM2.35759 21.4756L0.689635 20.4244C0.306777 21.0318 0.284452 21.7994 0.631357 22.4281C0.978262 23.0568 1.63954 23.4472 2.35759 23.4472V21.4756ZM8.1156 12.3395L9.78355 13.3908C10.1981 12.7329 10.1874 11.8929 9.75606 11.2459L8.1156 12.3395ZM2.22963 3.51058V1.539C1.50252 1.539 0.834427 1.9392 0.491334 2.58028C0.148241 3.22135 0.185844 3.99923 0.589173 4.60422L2.22963 3.51058ZM7.32227 3.51058L8.96392 2.41873C8.59844 1.86921 7.98224 1.539 7.32227 1.539V3.51058ZM10.9306 8.93591L9.28898 10.0278C9.66564 10.5941 10.3076 10.9263 10.9875 10.9067C11.6673 10.8871 12.2891 10.5184 12.6325 9.93133L10.9306 8.93591ZM14.1039 3.51058V1.539C13.4035 1.539 12.7557 1.91058 12.4021 2.51516L14.1039 3.51058ZM19.0686 3.51058L20.7368 4.56144C21.1195 3.95396 21.1417 3.18647 20.7947 2.55788C20.4478 1.92929 19.7866 1.539 19.0686 1.539V3.51058ZM13.3618 12.5699L11.6936 11.519C11.2792 12.1768 11.2901 13.0166 11.7213 13.6635L13.3618 12.5699ZM19.2989 21.4756V23.4472C20.0261 23.4472 20.6941 23.047 21.0372 22.4059C21.3803 21.7648 21.3427 20.9869 20.9394 20.3819L19.2989 21.4756ZM15.8479 20.3837L12.1884 14.8816L8.90513 17.0654L12.5647 22.5675L15.8479 20.3837ZM8.84576 14.9766L5.62127 20.4787L9.02327 22.4725L12.2478 16.9704L8.84576 14.9766ZM7.32227 19.504H2.35759V23.4472H7.32227V19.504ZM4.02554 22.5268L9.78355 13.3908L6.44765 11.2883L0.689635 20.4244L4.02554 22.5268ZM9.75606 11.2459L3.87009 2.41694L0.589173 4.60422L6.47514 13.4332L9.75606 11.2459ZM2.22963 5.48217H7.32227V1.539H2.22963V5.48217ZM5.68063 4.60243L9.28898 10.0278L12.5723 7.84406L8.96392 2.41873L5.68063 4.60243ZM12.6325 9.93133L15.8058 4.506L12.4021 2.51516L9.22878 7.94049L12.6325 9.93133ZM14.1039 5.48217H19.0686V1.539H14.1039V5.48217ZM17.4004 2.45972L11.6936 11.519L15.03 13.6207L20.7368 4.56144L17.4004 2.45972ZM11.7213 13.6635L17.6585 22.5692L20.9394 20.3819L15.0022 11.4762L11.7213 13.6635ZM19.2989 19.504H14.2063V23.4472H19.2989V19.504ZM20.9072 17.9696L19.6811 16.4256C19.2101 16.7996 18.9356 17.3682 18.9356 17.9696H20.9072ZM21.7005 17.3298L20.4444 15.8101C19.6355 16.4788 19.4921 17.664 20.1184 18.5062C20.7446 19.3485 21.9209 19.5525 22.7942 18.9703L21.7005 17.3298ZM25.6416 13.9262L24.3128 12.4697C24.3085 12.4736 24.3042 12.4775 24.3 12.4814L25.6416 13.9262ZM28.6101 6.6583L27.0901 7.91396L27.0901 7.91396L28.6101 6.6583ZM25.616 6.81184L24.0452 5.62023L24.0387 5.62889L25.616 6.81184ZM25.0785 8.85914V10.8307C26.1674 10.8307 27.0501 9.94801 27.0501 8.85914H25.0785ZM20.856 8.85914L18.885 8.81276C18.8725 9.34355 19.0746 9.85695 19.4456 10.2368C19.8166 10.6166 20.3251 10.8307 20.856 10.8307V8.85914ZM21.7773 5.22519L20.0972 4.19353C20.0927 4.20072 20.0884 4.20794 20.0841 4.21519L21.7773 5.22519ZM24.1061 3.07553L23.2621 1.29369L23.2498 1.29959L24.1061 3.07553ZM31.9114 3.94563L30.5058 5.32818C30.5096 5.33206 30.5134 5.33591 30.5173 5.33975L31.9114 3.94563ZM31.6043 13.1073L33.1422 14.341L33.1487 14.3328L31.6043 13.1073ZM26.8443 17.6625L25.6416 16.1003C24.9728 16.6152 24.7059 17.4987 24.9779 18.2978C25.2499 19.0968 26.0003 19.6341 26.8443 19.6341V17.6625ZM33.754 17.6625H35.7255C35.7255 16.5736 34.8428 15.6909 33.754 15.6909V17.6625ZM33.754 21.2197V23.1913C34.8428 23.1913 35.7255 22.3085 35.7255 21.2197H33.754ZM20.9072 21.2197H18.9356C18.9356 22.3085 19.8183 23.1913 20.9072 23.1913V21.2197ZM22.1333 19.5136C22.4238 19.2829 22.6398 19.1105 22.7782 18.9989C22.8442 18.9457 22.9044 18.8967 22.9478 18.8603C22.9594 18.8505 22.9753 18.8371 22.9926 18.8219C22.9992 18.8162 23.0461 18.7757 23.099 18.7227C23.1149 18.7069 23.143 18.6783 23.1763 18.641C23.198 18.6167 23.2762 18.5291 23.358 18.4038C23.3952 18.3468 23.4853 18.2039 23.5587 18.0026C23.6029 17.8815 23.8206 17.2818 23.5298 16.5756C23.1466 15.6451 22.2999 15.4034 21.899 15.3641C21.5423 15.3291 21.2675 15.4024 21.1876 15.4242C20.9876 15.4788 20.842 15.554 20.8152 15.5676C20.7614 15.5949 20.7198 15.619 20.6985 15.6317C20.6546 15.6577 20.6207 15.6801 20.6069 15.6894L22.7942 18.9703C22.7835 18.9774 22.7522 18.9981 22.7103 19.023C22.69 19.0351 22.6492 19.0588 22.596 19.0857C22.57 19.0989 22.4249 19.174 22.2252 19.2284C22.1455 19.2502 21.8709 19.3234 21.5143 19.2885C21.1135 19.2492 20.2668 19.0075 19.8837 18.0771C19.5929 17.371 19.8105 16.7713 19.8547 16.6504C19.9281 16.4492 20.0181 16.3065 20.0552 16.2497C20.1367 16.1247 20.2145 16.0377 20.2356 16.014C20.2684 15.9773 20.2958 15.9495 20.3108 15.9345C20.3802 15.8651 20.444 15.8137 20.4116 15.841C20.4017 15.8493 20.3691 15.876 20.3029 15.9295C20.1769 16.0311 19.9707 16.1957 19.6811 16.4256L22.1333 19.5136ZM22.9566 18.8495C24.6414 17.457 25.9878 16.2952 26.9831 15.371L24.3 12.4814C23.3845 13.3315 22.1036 14.4388 20.4444 15.8101L22.9566 18.8495ZM26.9703 15.3827C28.0423 14.4048 28.9649 13.3617 29.7255 12.2501L26.4711 10.0234C25.901 10.8567 25.1858 11.6732 24.3128 12.4697L26.9703 15.3827ZM29.7255 12.2501C30.5528 11.0409 31.0679 9.71251 31.0679 8.29613H27.1248C27.1248 8.72232 26.9745 9.28769 26.4711 10.0234L29.7255 12.2501ZM31.0679 8.29613C31.0679 7.30891 30.839 6.26069 30.1301 5.40263L27.0901 7.91396C27.0296 7.8407 27.1248 7.88437 27.1248 8.29613H31.0679ZM30.1301 5.40263C29.333 4.43763 28.2134 4.09811 27.1514 4.09811V8.04128C27.2806 8.04128 27.3042 8.06118 27.2646 8.0452C27.2439 8.03684 27.2129 8.02137 27.178 7.996C27.1428 7.97046 27.113 7.9417 27.0901 7.91396L30.1301 5.40263ZM27.1514 4.09811C25.918 4.09811 24.812 4.60942 24.0452 5.62025L27.1867 8.00344C27.1976 7.98914 27.1988 7.99039 27.1881 7.99938C27.1768 8.00883 27.1599 8.02042 27.1393 8.03035C27.119 8.04018 27.1048 8.04372 27.102 8.04432C27.1 8.04474 27.1149 8.04128 27.1514 8.04128V4.09811ZM24.0387 5.62889C23.3269 6.57789 23.107 7.74307 23.107 8.85914H27.0501C27.0501 8.20089 27.1884 8.0012 27.1932 7.9948L24.0387 5.62889ZM25.0785 6.88755H20.856V10.8307H25.0785V6.88755ZM22.827 8.90551C22.8554 7.70171 23.1069 6.84482 23.4705 6.23519L20.0841 4.21519C19.2876 5.55049 18.9249 7.11623 18.885 8.81276L22.827 8.90551ZM23.4574 6.25685C23.8725 5.58077 24.3732 5.13553 24.9623 4.85147L23.2498 1.29959C21.9282 1.93681 20.8763 2.92468 20.0972 4.19353L23.4574 6.25685ZM24.9501 4.85733C25.6347 4.53303 26.4175 4.35616 27.3306 4.35616V0.412986C25.8893 0.412986 24.5224 0.696749 23.2621 1.29374L24.9501 4.85733ZM27.3306 4.35616C29.0429 4.35616 29.9782 4.79182 30.5058 5.32818L33.317 2.56308C31.7973 1.01803 29.6787 0.412986 27.3306 0.412986V4.35616ZM30.5173 5.33975C31.1369 5.95936 31.5009 6.78816 31.5009 8.01463H35.444C35.444 5.89718 34.7673 4.01332 33.3055 2.55151L30.5173 5.33975ZM31.5009 8.01463C31.5009 9.35105 31.0574 10.6246 30.0598 11.8818L33.1487 14.3328C34.6421 12.4508 35.444 10.3292 35.444 8.01463H31.5009ZM30.0664 11.8736C28.9381 13.2801 27.4715 14.6914 25.6416 16.1003L28.0471 19.2247C30.0729 17.665 31.7796 16.0395 33.1422 14.341L30.0664 11.8736ZM26.8443 19.6341H33.754V15.6909H26.8443V19.6341ZM31.7824 17.6625V21.2197H35.7255V17.6625H31.7824ZM33.754 19.2481H20.9072V23.1913H33.754V19.2481ZM22.8788 21.2197V17.9696H18.9356V21.2197H22.8788Z" fill="#312946" mask="url(#path-1-outside-1_278_364)"/>
</svg>
