<svg width="50" height="24" viewBox="0 0 50 24" fill="none" xmlns="http://www.w3.org/2000/svg">
<mask id="path-1-outside-1_278_359" maskUnits="userSpaceOnUse" x="-0.149902" y="-0.524475" width="50" height="24" fill="black">
<rect fill="white" x="-0.149902" y="-0.524475" width="50" height="24"/>
<path d="M15.7446 14.4891H11.2918V19.0444H7.14601V14.4891H2.69314V10.5737H7.14601V5.99287H11.2918V10.5737H15.7446V14.4891ZM18.2508 17.9695C18.8308 17.5089 19.0953 17.2956 19.0441 17.3298C20.7161 15.9478 22.0297 14.8133 22.9851 13.9261C23.9576 13.039 24.7765 12.1092 25.4419 11.1367C26.1073 10.1642 26.4399 9.21735 26.4399 8.29607C26.4399 7.59658 26.2779 7.05063 25.9537 6.65824C25.6296 6.26584 25.1433 6.06964 24.495 6.06964C23.8467 6.06964 23.3349 6.31702 22.9595 6.81178C22.6013 7.28949 22.4221 7.97192 22.4221 8.85908H18.1996C18.2337 7.40891 18.5408 6.1976 19.1209 5.22513C19.718 4.25267 20.4943 3.53611 21.4497 3.07547C22.4221 2.61483 23.497 2.38451 24.6742 2.38451C26.7044 2.38451 28.2313 2.90486 29.255 3.94557C30.2957 4.98628 30.816 6.34261 30.816 8.01457C30.816 9.84007 30.1933 11.5376 28.9479 13.1072C27.7024 14.6597 26.1158 16.1782 24.1879 17.6624H31.0975V21.2196H18.2508V17.9695ZM46.1781 6.60705H38.1937V10.1386C38.5349 9.7633 39.0126 9.4562 39.6268 9.21735C40.241 8.9785 40.9064 8.85908 41.6229 8.85908C42.9025 8.85908 43.9602 9.14911 44.7962 9.72918C45.6493 10.3092 46.272 11.0599 46.6644 11.9812C47.0568 12.9025 47.253 13.9005 47.253 14.9754C47.253 16.9715 46.69 18.5581 45.564 19.7353C44.4379 20.8955 42.8513 21.4755 40.804 21.4755C39.4391 21.4755 38.2534 21.2452 37.2468 20.7846C36.2402 20.3069 35.464 19.65 34.918 18.814C34.3721 17.9781 34.0735 17.0141 34.0223 15.9222H38.2961C38.3984 16.4511 38.6458 16.8947 39.0382 17.253C39.4306 17.5942 39.968 17.7648 40.6504 17.7648C41.4523 17.7648 42.0494 17.5089 42.4418 16.9971C42.8342 16.4852 43.0304 15.8028 43.0304 14.9498C43.0304 14.1138 42.8257 13.474 42.4162 13.0304C42.0068 12.5869 41.4096 12.3651 40.6249 12.3651C40.0448 12.3651 39.5671 12.5101 39.1917 12.8001C38.8164 13.0731 38.569 13.4399 38.4496 13.9005H34.2271V2.76838H46.1781V6.60705Z"/>
</mask>
<path d="M15.7446 14.4891H11.2918V19.0444H7.14601V14.4891H2.69314V10.5737H7.14601V5.99287H11.2918V10.5737H15.7446V14.4891ZM18.2508 17.9695C18.8308 17.5089 19.0953 17.2956 19.0441 17.3298C20.7161 15.9478 22.0297 14.8133 22.9851 13.9261C23.9576 13.039 24.7765 12.1092 25.4419 11.1367C26.1073 10.1642 26.4399 9.21735 26.4399 8.29607C26.4399 7.59658 26.2779 7.05063 25.9537 6.65824C25.6296 6.26584 25.1433 6.06964 24.495 6.06964C23.8467 6.06964 23.3349 6.31702 22.9595 6.81178C22.6013 7.28949 22.4221 7.97192 22.4221 8.85908H18.1996C18.2337 7.40891 18.5408 6.1976 19.1209 5.22513C19.718 4.25267 20.4943 3.53611 21.4497 3.07547C22.4221 2.61483 23.497 2.38451 24.6742 2.38451C26.7044 2.38451 28.2313 2.90486 29.255 3.94557C30.2957 4.98628 30.816 6.34261 30.816 8.01457C30.816 9.84007 30.1933 11.5376 28.9479 13.1072C27.7024 14.6597 26.1158 16.1782 24.1879 17.6624H31.0975V21.2196H18.2508V17.9695ZM46.1781 6.60705H38.1937V10.1386C38.5349 9.7633 39.0126 9.4562 39.6268 9.21735C40.241 8.9785 40.9064 8.85908 41.6229 8.85908C42.9025 8.85908 43.9602 9.14911 44.7962 9.72918C45.6493 10.3092 46.272 11.0599 46.6644 11.9812C47.0568 12.9025 47.253 13.9005 47.253 14.9754C47.253 16.9715 46.69 18.5581 45.564 19.7353C44.4379 20.8955 42.8513 21.4755 40.804 21.4755C39.4391 21.4755 38.2534 21.2452 37.2468 20.7846C36.2402 20.3069 35.464 19.65 34.918 18.814C34.3721 17.9781 34.0735 17.0141 34.0223 15.9222H38.2961C38.3984 16.4511 38.6458 16.8947 39.0382 17.253C39.4306 17.5942 39.968 17.7648 40.6504 17.7648C41.4523 17.7648 42.0494 17.5089 42.4418 16.9971C42.8342 16.4852 43.0304 15.8028 43.0304 14.9498C43.0304 14.1138 42.8257 13.474 42.4162 13.0304C42.0068 12.5869 41.4096 12.3651 40.6249 12.3651C40.0448 12.3651 39.5671 12.5101 39.1917 12.8001C38.8164 13.0731 38.569 13.4399 38.4496 13.9005H34.2271V2.76838H46.1781V6.60705Z" fill="white"/>
<path d="M15.7446 14.4891V16.4607C16.8335 16.4607 17.7162 15.578 17.7162 14.4891H15.7446ZM11.2918 14.4891V12.5175C10.2029 12.5175 9.32019 13.4003 9.32019 14.4891H11.2918ZM11.2918 19.0444V21.0159C12.3807 21.0159 13.2634 20.1332 13.2634 19.0444H11.2918ZM7.14601 19.0444H5.17442C5.17442 20.1332 6.05713 21.0159 7.14601 21.0159V19.0444ZM7.14601 14.4891H9.11759C9.11759 13.4003 8.23488 12.5175 7.14601 12.5175V14.4891ZM2.69314 14.4891H0.721556C0.721556 15.578 1.60426 16.4607 2.69314 16.4607V14.4891ZM2.69314 10.5737V8.6021C1.60426 8.6021 0.721556 9.48481 0.721556 10.5737H2.69314ZM7.14601 10.5737V12.5453C8.23488 12.5453 9.11759 11.6626 9.11759 10.5737H7.14601ZM7.14601 5.99287V4.02128C6.05713 4.02128 5.17442 4.90399 5.17442 5.99287H7.14601ZM11.2918 5.99287H13.2634C13.2634 4.90399 12.3807 4.02128 11.2918 4.02128V5.99287ZM11.2918 10.5737H9.32019C9.32019 11.6626 10.2029 12.5453 11.2918 12.5453V10.5737ZM15.7446 10.5737H17.7162C17.7162 9.48481 16.8335 8.6021 15.7446 8.6021V10.5737ZM15.7446 12.5175H11.2918V16.4607H15.7446V12.5175ZM9.32019 14.4891V19.0444H13.2634V14.4891H9.32019ZM11.2918 17.0728H7.14601V21.0159H11.2918V17.0728ZM9.11759 19.0444V14.4891H5.17442V19.0444H9.11759ZM7.14601 12.5175H2.69314V16.4607H7.14601V12.5175ZM4.66473 14.4891V10.5737H0.721556V14.4891H4.66473ZM2.69314 12.5453H7.14601V8.6021H2.69314V12.5453ZM9.11759 10.5737V5.99287H5.17442V10.5737H9.11759ZM7.14601 7.96445H11.2918V4.02128H7.14601V7.96445ZM9.32019 5.99287V10.5737H13.2634V5.99287H9.32019ZM11.2918 12.5453H15.7446V8.6021H11.2918V12.5453ZM13.7731 10.5737V14.4891H17.7162V10.5737H13.7731ZM18.2508 17.9695L17.0247 16.4256C16.5537 16.7996 16.2792 17.3681 16.2792 17.9695H18.2508ZM19.0441 17.3298L17.788 15.8101C16.9791 16.4787 16.8357 17.6639 17.4619 18.5062C18.0882 19.3484 19.2645 19.5524 20.1377 18.9702L19.0441 17.3298ZM22.9851 13.9261L21.6564 12.4696C21.6521 12.4735 21.6478 12.4774 21.6436 12.4814L22.9851 13.9261ZM25.9537 6.65824L24.4337 7.9139L24.4337 7.9139L25.9537 6.65824ZM22.9595 6.81178L21.3888 5.62017L21.3823 5.62883L22.9595 6.81178ZM22.4221 8.85908V10.8307C23.511 10.8307 24.3937 9.94795 24.3937 8.85908H22.4221ZM18.1996 8.85908L16.2286 8.8127C16.2161 9.34349 16.4182 9.85688 16.7892 10.2367C17.1602 10.6165 17.6687 10.8307 18.1996 10.8307V8.85908ZM19.1209 5.22513L17.4407 4.19347C17.4363 4.20066 17.432 4.20788 17.4276 4.21513L19.1209 5.22513ZM21.4497 3.07547L20.6056 1.29363L20.5934 1.29953L21.4497 3.07547ZM29.255 3.94557L27.8494 5.32812C27.8532 5.332 27.857 5.33585 27.8609 5.33969L29.255 3.94557ZM28.9479 13.1072L30.4858 14.3409L30.4923 14.3327L28.9479 13.1072ZM24.1879 17.6624L22.9852 16.1002C22.3164 16.6151 22.0495 17.4987 22.3215 18.2977C22.5934 19.0967 23.3439 19.634 24.1879 19.634V17.6624ZM31.0975 17.6624H33.0691C33.0691 16.5736 32.1864 15.6909 31.0975 15.6909V17.6624ZM31.0975 21.2196V23.1912C32.1864 23.1912 33.0691 22.3085 33.0691 21.2196H31.0975ZM18.2508 21.2196H16.2792C16.2792 22.3085 17.1619 23.1912 18.2508 23.1912V21.2196ZM19.4769 19.5135C19.7674 19.2828 19.9834 19.1104 20.1218 18.9988C20.1878 18.9456 20.248 18.8966 20.2914 18.8602C20.303 18.8505 20.3189 18.837 20.3362 18.8219C20.3428 18.8162 20.3897 18.7756 20.4426 18.7227C20.4585 18.7068 20.4866 18.6782 20.5199 18.6409C20.5416 18.6166 20.6198 18.5291 20.7016 18.4037C20.7387 18.3467 20.8288 18.2039 20.9023 18.0026C20.9465 17.8815 21.1642 17.2817 20.8734 16.5756C20.4902 15.6451 19.6435 15.4033 19.2426 15.364C18.8859 15.3291 18.6111 15.4024 18.5312 15.4241C18.3312 15.4787 18.1856 15.554 18.1588 15.5675C18.1049 15.5948 18.0634 15.619 18.0421 15.6316C17.9982 15.6577 17.9643 15.6801 17.9505 15.6893L20.1377 18.9702C20.1271 18.9773 20.0958 18.9981 20.0539 19.023C20.0336 19.035 19.9928 19.0587 19.9396 19.0857C19.9136 19.0989 19.7684 19.1739 19.5688 19.2284C19.489 19.2501 19.2145 19.3234 18.8579 19.2884C18.4571 19.2491 17.6104 19.0074 17.2273 18.077C16.9365 17.3709 17.1541 16.7713 17.1983 16.6503C17.2717 16.4491 17.3617 16.3064 17.3988 16.2497C17.4803 16.1247 17.5581 16.0376 17.5792 16.0139C17.612 15.9773 17.6394 15.9494 17.6544 15.9344C17.7238 15.865 17.7876 15.8137 17.7552 15.8409C17.7453 15.8492 17.7127 15.876 17.6465 15.9294C17.5204 16.0311 17.3142 16.1956 17.0247 16.4256L19.4769 19.5135ZM20.3002 18.8494C21.985 17.4569 23.3314 16.2951 24.3267 15.3709L21.6436 12.4814C20.7281 13.3315 19.4472 14.4388 17.788 15.8101L20.3002 18.8494ZM24.3139 15.3827C25.3858 14.4048 26.3085 13.3617 27.0691 12.25L23.8147 10.0234C23.2446 10.8567 22.5294 11.6732 21.6564 12.4696L24.3139 15.3827ZM27.0691 12.25C27.8964 11.0408 28.4115 9.71245 28.4115 8.29607H24.4684C24.4684 8.72225 24.3181 9.28763 23.8147 10.0234L27.0691 12.25ZM28.4115 8.29607C28.4115 7.30885 28.1826 6.26062 27.4737 5.40257L24.4337 7.9139C24.3732 7.84064 24.4684 7.88431 24.4684 8.29607H28.4115ZM27.4737 5.40257C26.6766 4.43757 25.557 4.09805 24.495 4.09805V8.04122C24.6242 8.04122 24.6478 8.06112 24.6082 8.04514C24.5875 8.03678 24.5565 8.02131 24.5216 7.99594C24.4864 7.9704 24.4566 7.94164 24.4337 7.9139L27.4737 5.40257ZM24.495 4.09805C23.2616 4.09805 22.1556 4.60936 21.3888 5.62018L24.5303 8.00338C24.5411 7.98908 24.5424 7.99033 24.5317 7.99932C24.5204 8.00877 24.5034 8.02036 24.4829 8.03029C24.4626 8.04012 24.4484 8.04366 24.4455 8.04426C24.4436 8.04468 24.4585 8.04122 24.495 8.04122V4.09805ZM21.3823 5.62883C20.6705 6.57783 20.4506 7.743 20.4506 8.85908H24.3937C24.3937 8.20083 24.532 8.00114 24.5368 7.99473L21.3823 5.62883ZM22.4221 6.88749H18.1996V10.8307H22.4221V6.88749ZM20.1706 8.90545C20.199 7.70165 20.4505 6.84476 20.8141 6.23513L17.4276 4.21513C16.6311 5.55043 16.2685 7.11617 16.2286 8.8127L20.1706 8.90545ZM20.801 6.25679C21.2161 5.58071 21.7168 5.13547 22.3059 4.85141L20.5934 1.29953C19.2718 1.93675 18.2199 2.92462 17.4407 4.19347L20.801 6.25679ZM22.2937 4.85727C22.9783 4.53297 23.7611 4.35609 24.6742 4.35609V0.412925C23.2329 0.412925 21.866 0.696688 20.6057 1.29368L22.2937 4.85727ZM24.6742 4.35609C26.3865 4.35609 27.3218 4.79176 27.8494 5.32812L30.6606 2.56302C29.1409 1.01797 27.0223 0.412925 24.6742 0.412925V4.35609ZM27.8609 5.33969C28.4805 5.9593 28.8445 6.7881 28.8445 8.01457H32.7876C32.7876 5.89712 32.1109 4.01326 30.6491 2.55145L27.8609 5.33969ZM28.8445 8.01457C28.8445 9.35099 28.401 10.6245 27.4034 11.8817L30.4923 14.3327C31.9857 12.4507 32.7876 10.3292 32.7876 8.01457H28.8445ZM27.41 11.8735C26.2817 13.2801 24.8151 14.6914 22.9852 16.1002L25.3907 19.2247C27.4165 17.6649 29.1232 16.0394 30.4858 14.3409L27.41 11.8735ZM24.1879 19.634H31.0975V15.6909H24.1879V19.634ZM29.126 17.6624V21.2196H33.0691V17.6624H29.126ZM31.0975 19.248H18.2508V23.1912H31.0975V19.248ZM20.2224 21.2196V17.9695H16.2792V21.2196H20.2224ZM46.1781 6.60705V8.57864C47.267 8.57864 48.1497 7.69593 48.1497 6.60705H46.1781ZM38.1937 6.60705V4.63547C37.1048 4.63547 36.2221 5.51818 36.2221 6.60705H38.1937ZM38.1937 10.1386H36.2221C36.2221 10.9532 36.723 11.6839 37.4827 11.9776C38.2425 12.2713 39.1046 12.0676 39.6525 11.4649L38.1937 10.1386ZM39.6268 9.21735L38.9122 7.37983L39.6268 9.21735ZM44.7962 9.72918L43.6722 11.349C43.6773 11.3525 43.6824 11.356 43.6876 11.3595L44.7962 9.72918ZM46.6644 11.9812L48.4783 11.2086L46.6644 11.9812ZM45.5639 19.7353L46.9787 21.1085C46.9821 21.105 46.9854 21.1016 46.9887 21.0981L45.5639 19.7353ZM37.2468 20.7846L36.4015 22.5657C36.4098 22.5697 36.4181 22.5735 36.4264 22.5773L37.2468 20.7846ZM34.918 18.814L33.2673 19.8921L34.918 18.814ZM34.0223 15.9222V13.9507C33.4834 13.9507 32.968 14.1713 32.5959 14.5611C32.2239 14.951 32.0277 15.4762 32.0529 16.0146L34.0223 15.9222ZM38.2961 15.9222L40.2317 15.5476C40.0523 14.6204 39.2405 13.9507 38.2961 13.9507V15.9222ZM39.0382 17.253L37.7088 18.709C37.7206 18.7197 37.7325 18.7303 37.7445 18.7408L39.0382 17.253ZM42.4162 13.0304L43.865 11.6932V11.6931L42.4162 13.0304ZM39.1917 12.8001L40.3514 14.3946C40.3668 14.3834 40.3821 14.3719 40.3973 14.3602L39.1917 12.8001ZM38.4496 13.9005V15.8721C39.3479 15.8721 40.1327 15.2649 40.3581 14.3953L38.4496 13.9005ZM34.2271 13.9005H32.2555C32.2555 14.9894 33.1382 15.8721 34.2271 15.8721V13.9005ZM34.2271 2.76838V0.796793C33.1382 0.796793 32.2555 1.6795 32.2555 2.76838H34.2271ZM46.1781 2.76838H48.1497C48.1497 1.6795 47.267 0.796793 46.1781 0.796793V2.76838ZM46.1781 4.63547H38.1937V8.57864H46.1781V4.63547ZM36.2221 6.60705V10.1386H40.1653V6.60705H36.2221ZM39.6525 11.4649C39.7366 11.3724 39.9295 11.2151 40.3414 11.0549L38.9122 7.37983C38.0957 7.69735 37.3332 8.1542 36.7348 8.8124L39.6525 11.4649ZM40.3414 11.0549C40.7086 10.9121 41.1294 10.8307 41.6229 10.8307V6.88749C40.6833 6.88749 39.7734 7.04493 38.9122 7.37983L40.3414 11.0549ZM41.6229 10.8307C42.6046 10.8307 43.2425 11.0508 43.6722 11.349L45.9202 8.10935C44.678 7.24742 43.2003 6.88749 41.6229 6.88749V10.8307ZM43.6876 11.3595C44.2381 11.7339 44.6108 12.191 44.8505 12.7538L48.4783 11.2086C47.9332 9.92883 47.0604 8.88456 45.9049 8.09882L43.6876 11.3595ZM44.8505 12.7538C45.1314 13.4133 45.2814 14.1463 45.2814 14.9754H49.2246C49.2246 13.6547 48.9822 12.3917 48.4783 11.2086L44.8505 12.7538ZM45.2814 14.9754C45.2814 16.5846 44.8388 17.6411 44.1392 18.3725L46.9887 21.0981C48.5411 19.4751 49.2246 17.3584 49.2246 14.9754H45.2814ZM44.1492 18.3622C43.4874 19.044 42.4682 19.5039 40.804 19.5039V23.4471C43.2344 23.4471 45.3885 22.7469 46.9787 21.1085L44.1492 18.3622ZM40.804 19.5039C39.6579 19.5039 38.7637 19.3105 38.0672 18.9918L36.4264 22.5773C37.7432 23.1799 39.2203 23.4471 40.804 23.4471V19.5039ZM38.0921 19.0034C37.3745 18.6628 36.8937 18.2336 36.5688 17.736L33.2673 19.8921C34.0342 21.0665 35.1059 21.9509 36.4015 22.5657L38.0921 19.0034ZM36.5688 17.736C36.233 17.2218 36.0281 16.605 35.9918 15.8299L32.0529 16.0146C32.1189 17.4233 32.5112 18.7343 33.2673 19.8921L36.5688 17.736ZM34.0223 17.8938H38.2961V13.9507H34.0223V17.8938ZM36.3604 16.2969C36.5421 17.2358 36.9987 18.0606 37.7088 18.709L40.3676 15.797C40.2929 15.7288 40.2547 15.6664 40.2317 15.5476L36.3604 16.2969ZM37.7445 18.7408C38.5953 19.4806 39.6437 19.7364 40.6504 19.7364V15.7932C40.4706 15.7932 40.3723 15.7704 40.3321 15.7577C40.2982 15.7469 40.3083 15.7447 40.3319 15.7652L37.7445 18.7408ZM40.6504 19.7364C41.9004 19.7364 43.1508 19.3127 44.0065 18.1966L40.8772 15.7975C40.8788 15.7953 40.8867 15.786 40.9006 15.7752C40.9143 15.7646 40.9239 15.7603 40.923 15.7607C40.9202 15.7619 40.8451 15.7932 40.6504 15.7932V19.7364ZM44.0065 18.1966C44.7368 17.2441 45.002 16.0968 45.002 14.9498H41.0588C41.0588 15.5088 40.9317 15.7264 40.8772 15.7975L44.0065 18.1966ZM45.002 14.9498C45.002 13.8102 44.7214 12.621 43.865 11.6932L40.9675 14.3677C40.93 14.327 41.0588 14.4174 41.0588 14.9498H45.002ZM43.865 11.6931C42.9785 10.7328 41.7856 10.3935 40.6249 10.3935V14.3367C40.8354 14.3367 40.9403 14.3668 40.9748 14.3796C40.9991 14.3887 40.9848 14.3864 40.9675 14.3677L43.865 11.6931ZM40.6249 10.3935C39.7083 10.3935 38.7782 10.628 37.9862 11.24L40.3973 14.3602C40.3858 14.3691 40.3822 14.3671 40.4042 14.3604C40.4302 14.3525 40.4982 14.3367 40.6249 14.3367V10.3935ZM38.0321 11.2056C37.2772 11.7546 36.772 12.515 36.5411 13.4057L40.3581 14.3953C40.3623 14.379 40.3655 14.3718 40.3656 14.3717C40.3657 14.3715 40.3652 14.3725 40.3641 14.3746C40.3629 14.3767 40.3613 14.3793 40.3593 14.3823C40.3549 14.3889 40.3504 14.3942 40.3471 14.3976C40.3439 14.4009 40.3444 14.3997 40.3514 14.3946L38.0321 11.2056ZM38.4496 11.929H34.2271V15.8721H38.4496V11.929ZM36.1986 13.9005V2.76838H32.2555V13.9005H36.1986ZM34.2271 4.73996H46.1781V0.796793H34.2271V4.73996ZM44.2066 2.76838V6.60705H48.1497V2.76838H44.2066Z" fill="#312946" mask="url(#path-1-outside-1_278_359)"/>
</svg>
